<svg width="52" height="52" viewBox="0 0 52 52" fill="none" xmlns="http://www.w3.org/2000/svg">
<g clip-path="url(#clip0_6_92)">
<path d="M28.38 0H31.7478L33.9482 0.044905L35.7444 0.08981L36.6874 0.134715C39.4715 0.26943 41.3575 0.71848 42.9741 1.34715C44.6805 2.02073 46.1174 2.91883 47.5993 4.35579C49.0363 5.79275 49.9344 7.27461 50.6079 8.981C51.1917 10.4629 51.5959 12.1244 51.7755 14.4145L51.9102 16.8843L51.9551 19.2193L52 23.6649V32.0173L51.9551 34.6218L51.8653 36.7772C51.7306 39.5613 51.2815 41.4473 50.6528 43.1088C49.9793 44.8152 49.0812 46.2522 47.6442 47.734C46.2073 49.171 44.7703 50.0691 43.019 50.7427C41.5371 51.3264 39.8756 51.7306 37.5855 51.9102L34.8014 52.0449L32.3316 52.0898L28.3351 52.1347H19.9827L17.3782 52.0898L15.2228 52C12.4387 51.8653 10.5527 51.4162 8.9361 50.7876C7.22971 50.114 5.79275 49.2159 4.31088 47.7789C2.87392 46.342 1.97582 44.8601 1.30225 43.1537C0.71848 41.6718 0.314335 40.0104 0.134715 37.7202L0.044905 35.8791L0 34.0829L0 31.7478V27.6166V20.2073L0.044905 18.0069L0.08981 16.2107L0.134715 15.2677C0.26943 12.5285 0.71848 10.6425 1.34715 8.981C2.02073 7.27461 2.91883 5.83765 4.35579 4.35579C5.79275 2.91883 7.27461 2.02073 8.981 1.34715C10.4629 0.763385 12.1244 0.35924 14.4145 0.17962L16.2556 0.08981L18.0518 0.044905L20.2073 0H23.5751C23.62 0 28.38 0 28.38 0ZM31.658 4.71503H20.2971L18.3212 4.75993L15.4473 4.84974C14.7288 4.89465 14.0104 4.93955 13.2919 5.02936L12.8877 5.07427C12.6183 5.11917 12.304 5.16408 12.0345 5.25389L11.7202 5.3437C11.6304 5.3886 11.5406 5.3886 11.4508 5.43351L10.867 5.61313L10.5976 5.70294C9.38515 6.19689 8.53195 6.73575 7.58895 7.63385C6.69085 8.53195 6.10708 9.43005 5.65803 10.6425L5.52332 11.2263L5.43351 11.4957C5.20898 12.2591 4.98446 13.3368 4.84974 14.8187L4.80484 15.9413L4.71503 18.2763L4.67012 22.2729V31.5233L4.71503 34.3972L4.80484 36.5078C4.84974 37.2712 4.89465 38.0345 5.02936 38.7979L5.07427 39.1572C5.07427 39.2021 5.07427 39.2919 5.11917 39.3368L5.20898 39.6511L5.29879 39.9655C5.29879 40.0104 5.3437 40.0553 5.3437 40.1002L5.43351 40.3696L5.52332 40.639L5.56822 40.7737L5.74784 41.3126C6.19689 42.525 6.78066 43.3782 7.67876 44.3212C8.57686 45.2193 9.47496 45.8031 10.6874 46.2522L11.2263 46.4318L11.4508 46.5216L11.5855 46.5665L11.8549 46.6563C11.8998 46.6563 11.9447 46.7012 11.9896 46.7012L12.304 46.791L12.6183 46.8808L12.9775 46.9257C13.6511 47.0604 14.4594 47.1503 15.4473 47.1952L18.6356 47.3299L22.8566 47.3748H32.0173L34.3523 47.3299L36.4629 47.2401C37.4508 47.1952 38.2591 47.1054 38.9326 46.9706L39.2919 46.9257L39.6062 46.8359L39.9655 46.7012L40.1002 46.6563L40.3696 46.5665L40.639 46.4767L40.7737 46.4318L41.3126 46.2522C42.525 45.8031 43.3782 45.2193 44.3212 44.3212C45.2193 43.4231 45.8031 42.525 46.2522 41.3126L46.4318 40.7737C46.7012 39.9655 46.9706 38.8428 47.1054 37.1364L47.2401 34.3972L47.285 31.6131V27.6166V20.3869L47.2401 17.6028L47.1503 15.4922C47.1054 14.8636 47.0604 14.19 46.9706 13.5613L46.9257 13.1572C46.8808 12.9775 46.8808 12.7979 46.8359 12.6183L46.7461 12.304C46.7012 12.2142 46.7012 12.0794 46.6563 11.9896L46.5665 11.7202L46.5216 11.5855L46.2971 10.867L46.2522 10.7323C45.7582 9.51986 45.2193 8.66667 44.3212 7.72366C43.4231 6.78066 42.525 6.2418 41.3126 5.79275L41.0432 5.70294L40.4594 5.52332L40.3247 5.3886L39.9655 5.29879C39.247 5.11917 38.3489 4.93955 37.1364 4.84974L35.2055 4.75993L33.6339 4.71503H31.658Z" fill="url(#paint0_linear_6_92)"/>
<path d="M26.0001 12.6632C33.3645 12.6632 39.3369 18.6356 39.3369 26C39.3369 33.3644 33.3645 39.3368 26.0001 39.3368C18.6357 39.3368 12.6633 33.3644 12.6633 26C12.6633 18.6356 18.6357 12.6632 26.0001 12.6632ZM26.0001 17.3333C21.1953 17.3333 17.3334 21.1952 17.3334 26C17.3334 30.8048 21.1953 34.6667 26.0001 34.6667C30.805 34.6667 34.6668 30.8048 34.6668 26C34.6668 21.1952 30.76 17.3333 26.0001 17.3333ZM42.9742 12.1244C43.0191 13.8307 41.672 15.2677 39.9656 15.3126C38.2592 15.3575 36.8222 14.0104 36.7773 12.304C36.7773 12.2591 36.7773 12.1693 36.7773 12.1244C36.8222 10.418 38.2592 9.02591 39.9656 9.11572C41.6271 9.11572 42.9293 10.4629 42.9742 12.1244Z" fill="url(#paint1_linear_6_92)"/>
</g>
<defs>
<linearGradient id="paint0_linear_6_92" x1="10.5054" y1="52.2842" x2="41.1557" y2="0.294204" gradientUnits="userSpaceOnUse">
<stop stop-color="#FDD074"/>
<stop offset="0.25" stop-color="#F77F34"/>
<stop offset="0.5" stop-color="#DD326E"/>
<stop offset="0.75" stop-color="#D82B7E"/>
<stop offset="1" stop-color="#A432B1"/>
</linearGradient>
<linearGradient id="paint1_linear_6_92" x1="18.2034" y1="39.1824" x2="36.0162" y2="8.88075" gradientUnits="userSpaceOnUse">
<stop stop-color="#FDD074"/>
<stop offset="0.25" stop-color="#F77F34"/>
<stop offset="0.5" stop-color="#DD326E"/>
<stop offset="0.75" stop-color="#D82B7E"/>
<stop offset="1" stop-color="#A432B1"/>
</linearGradient>
<clipPath id="clip0_6_92">
<rect width="52" height="52" fill="white"/>
</clipPath>
</defs>
</svg>
