<svg width="60" height="52" viewBox="0 0 60 52" fill="none" xmlns="http://www.w3.org/2000/svg">
<path d="M58.7461 8.11997C58.0561 4.92365 56.0233 2.40668 53.4416 1.55245C48.7626 0 30 0 30 0C30 0 11.2375 0 6.55837 1.55245C3.97691 2.40668 1.94371 4.92365 1.25377 8.11997C0 13.9131 0 26 0 26C0 26 0 38.0868 1.25377 43.8804C1.94371 47.0764 3.97691 49.5933 6.55837 50.4479C11.2375 52 30 52 30 52C30 52 48.7626 52 53.4416 50.4479C56.0233 49.5933 58.0561 47.0764 58.7461 43.8804C60 38.0868 60 26 60 26C60 26 60 13.9131 58.7461 8.11997Z" fill="#ED1D24"/>
<path d="M23.8635 36.974L39.5453 26.0005L23.8635 15.026V36.974Z" fill="white"/>
</svg>
